<?xml version="1.0" encoding="UTF-8" standalone="no"?>
<!-- Created with Inkscape (http://www.inkscape.org/) -->

<svg
   xmlns:dc="http://purl.org/dc/elements/1.1/"
   xmlns:cc="http://creativecommons.org/ns#"
   xmlns:rdf="http://www.w3.org/1999/02/22-rdf-syntax-ns#"
   xmlns:svg="http://www.w3.org/2000/svg"
   xmlns="http://www.w3.org/2000/svg"
   xmlns:xlink="http://www.w3.org/1999/xlink"
   xmlns:sodipodi="http://sodipodi.sourceforge.net/DTD/sodipodi-0.dtd"
   xmlns:inkscape="http://www.inkscape.org/namespaces/inkscape"
   width="148mm"
   height="105mm"
   viewBox="0 0 148 105"
   version="1.1"
   id="svg8"
   inkscape:version="0.92.2 (5c3e80d, 2017-08-06)"
   sodipodi:docname="Fingerprintlogo-final.svg">
  <defs
     id="defs2">
    <linearGradient
       inkscape:collect="always"
       id="linearGradient5263">
      <stop
         style="stop-color:#00ccff;stop-opacity:1;"
         offset="0"
         id="stop5259" />
      <stop
         style="stop-color:#ff00f4;stop-opacity:1"
         offset="1"
         id="stop5261" />
    </linearGradient>
    <linearGradient
       inkscape:collect="always"
       xlink:href="#linearGradient5263"
       id="linearGradient5265"
       x1="-700.85968"
       y1="208.17163"
       x2="-415.30191"
       y2="208.17163"
       gradientUnits="userSpaceOnUse" />
    <linearGradient
       inkscape:collect="always"
       xlink:href="#linearGradient5263"
       id="linearGradient5315"
       gradientUnits="userSpaceOnUse"
       x1="-700.85968"
       y1="208.17163"
       x2="-415.30191"
       y2="208.17163" />
    <linearGradient
       inkscape:collect="always"
       xlink:href="#linearGradient5263"
       id="linearGradient5317"
       gradientUnits="userSpaceOnUse"
       x1="-700.85968"
       y1="208.17163"
       x2="-415.30191"
       y2="208.17163" />
    <linearGradient
       inkscape:collect="always"
       xlink:href="#linearGradient5263"
       id="linearGradient5319"
       gradientUnits="userSpaceOnUse"
       x1="-700.85968"
       y1="208.17163"
       x2="-415.30191"
       y2="208.17163" />
    <linearGradient
       inkscape:collect="always"
       xlink:href="#linearGradient5263"
       id="linearGradient5321"
       gradientUnits="userSpaceOnUse"
       x1="-700.85968"
       y1="208.17163"
       x2="-415.30191"
       y2="208.17163" />
    <linearGradient
       inkscape:collect="always"
       xlink:href="#linearGradient5263"
       id="linearGradient5323"
       gradientUnits="userSpaceOnUse"
       x1="-700.85968"
       y1="208.17163"
       x2="-415.30191"
       y2="208.17163" />
    <linearGradient
       inkscape:collect="always"
       xlink:href="#linearGradient5263"
       id="linearGradient5325"
       gradientUnits="userSpaceOnUse"
       x1="-700.85968"
       y1="208.17163"
       x2="-415.30191"
       y2="208.17163" />
    <linearGradient
       inkscape:collect="always"
       xlink:href="#linearGradient5263"
       id="linearGradient5327"
       gradientUnits="userSpaceOnUse"
       x1="-700.85968"
       y1="208.17163"
       x2="-415.30191"
       y2="208.17163" />
    <linearGradient
       inkscape:collect="always"
       xlink:href="#linearGradient5263"
       id="linearGradient5329"
       gradientUnits="userSpaceOnUse"
       x1="-700.85968"
       y1="208.17163"
       x2="-415.30191"
       y2="208.17163" />
    <linearGradient
       inkscape:collect="always"
       xlink:href="#linearGradient5263"
       id="linearGradient5331"
       gradientUnits="userSpaceOnUse"
       x1="-700.85968"
       y1="208.17163"
       x2="-415.30191"
       y2="208.17163" />
    <linearGradient
       inkscape:collect="always"
       xlink:href="#linearGradient5263"
       id="linearGradient5333"
       gradientUnits="userSpaceOnUse"
       x1="-700.85968"
       y1="208.17163"
       x2="-415.30191"
       y2="208.17163" />
    <linearGradient
       inkscape:collect="always"
       xlink:href="#linearGradient5263"
       id="linearGradient5335"
       gradientUnits="userSpaceOnUse"
       x1="-700.85968"
       y1="208.17163"
       x2="-415.30191"
       y2="208.17163" />
    <linearGradient
       inkscape:collect="always"
       xlink:href="#linearGradient5263"
       id="linearGradient5337"
       gradientUnits="userSpaceOnUse"
       x1="-700.85968"
       y1="208.17163"
       x2="-415.30191"
       y2="208.17163" />
    <linearGradient
       inkscape:collect="always"
       xlink:href="#linearGradient5263"
       id="linearGradient5339"
       gradientUnits="userSpaceOnUse"
       x1="-700.85968"
       y1="208.17163"
       x2="-415.30191"
       y2="208.17163" />
    <linearGradient
       inkscape:collect="always"
       xlink:href="#linearGradient5263"
       id="linearGradient5341"
       gradientUnits="userSpaceOnUse"
       x1="-700.85968"
       y1="208.17163"
       x2="-415.30191"
       y2="208.17163" />
    <linearGradient
       inkscape:collect="always"
       xlink:href="#linearGradient5263"
       id="linearGradient5343"
       gradientUnits="userSpaceOnUse"
       x1="-700.85968"
       y1="208.17163"
       x2="-415.30191"
       y2="208.17163" />
    <linearGradient
       inkscape:collect="always"
       xlink:href="#linearGradient5263"
       id="linearGradient5345"
       gradientUnits="userSpaceOnUse"
       x1="-700.85968"
       y1="208.17163"
       x2="-415.30191"
       y2="208.17163" />
    <linearGradient
       inkscape:collect="always"
       xlink:href="#linearGradient5263"
       id="linearGradient5347"
       gradientUnits="userSpaceOnUse"
       x1="-700.85968"
       y1="208.17163"
       x2="-415.30191"
       y2="208.17163" />
    <linearGradient
       inkscape:collect="always"
       xlink:href="#linearGradient5263"
       id="linearGradient5349"
       gradientUnits="userSpaceOnUse"
       x1="-700.85968"
       y1="208.17163"
       x2="-415.30191"
       y2="208.17163" />
  </defs>
  <sodipodi:namedview
     id="base"
     pagecolor="#ffffff"
     bordercolor="#666666"
     borderopacity="1.0"
     inkscape:pageopacity="0.0"
     inkscape:pageshadow="2"
     inkscape:zoom="0.5"
     inkscape:cx="780.62073"
     inkscape:cy="201.74663"
     inkscape:document-units="mm"
     inkscape:current-layer="layer1"
     showgrid="true"
     inkscape:snap-smooth-nodes="true"
     inkscape:snap-global="false"
     inkscape:window-width="1920"
     inkscape:window-height="1017"
     inkscape:window-x="-8"
     inkscape:window-y="-8"
     inkscape:window-maximized="1">
    <inkscape:grid
       type="xygrid"
       id="grid4630"
       spacingx="13.229167"
       spacingy="13.229167" />
  </sodipodi:namedview>
  <metadata
     id="metadata5">
    <rdf:RDF>
      <cc:Work
         rdf:about="">
        <dc:format>image/svg+xml</dc:format>
        <dc:type
           rdf:resource="http://purl.org/dc/dcmitype/StillImage" />
        <dc:title></dc:title>
      </cc:Work>
    </rdf:RDF>
  </metadata>
  <g
     inkscape:label="Vrstva 1"
     inkscape:groupmode="layer"
     id="layer1"
     transform="translate(0,-192)">
    <g
       id="g5355"
       transform="matrix(1.4490565,0,0,1.4490565,-82.989897,83.937688)"
       style="stroke-width:0.69010419">
      <path
         inkscape:connector-curvature="0"
         id="rect4504"
         d="m 73.703371,103.56912 v 14.59292 l 27.876209,27.87621 27.87621,-27.87621 -7.29645,-7.29646 -20.57976,20.57976 z"
         style="opacity:1;fill:#d5e5ff;stroke-width:0.18259005" />
      <path
         inkscape:connector-curvature="0"
         id="path4518"
         d="m 73.703371,103.56912 27.876209,27.87622 7.29646,-7.29646 L 88.296287,103.56912 116.1725,75.692913 h -14.59292 z"
         style="opacity:1;fill:#d5e5ff;stroke-width:0.18259005" />
      <path
         inkscape:connector-curvature="0"
         id="path4523"
         d="m 88.296287,103.56912 7.296458,7.29646 20.579755,-20.579751 27.87621,27.876211 V 103.56912 L 116.1725,75.692913 Z"
         style="opacity:1;fill:#e3d7f4;stroke-width:0.18259005" />
      <path
         inkscape:connector-curvature="0"
         style="opacity:1;fill:#e5d5ff;stroke-width:0.18259005"
         d="m 144.04871,118.16204 -27.87621,-27.876208 -7.29645,7.296458 20.57974,20.57975 -27.87621,27.87621 h 14.59292 z"
         id="path4531" />
    </g>
    <path
       style="color:#000000;font-style:normal;font-variant:normal;font-weight:normal;font-stretch:normal;font-size:medium;line-height:normal;font-family:sans-serif;font-variant-ligatures:normal;font-variant-position:normal;font-variant-caps:normal;font-variant-numeric:normal;font-variant-alternates:normal;font-feature-settings:normal;text-indent:0;text-align:start;text-decoration:none;text-decoration-line:none;text-decoration-style:solid;text-decoration-color:#000000;letter-spacing:normal;word-spacing:normal;text-transform:none;writing-mode:lr-tb;direction:ltr;text-orientation:mixed;dominant-baseline:auto;baseline-shift:baseline;text-anchor:start;white-space:normal;shape-padding:0;clip-rule:nonzero;display:inline;overflow:visible;visibility:visible;opacity:1;isolation:auto;mix-blend-mode:normal;color-interpolation:sRGB;color-interpolation-filters:linearRGB;solid-color:#000000;solid-opacity:1;vector-effect:none;fill:#005544;fill-opacity:1;fill-rule:nonzero;stroke:none;stroke-width:1;stroke-linecap:butt;stroke-linejoin:miter;stroke-miterlimit:4;stroke-dasharray:none;stroke-dashoffset:0;stroke-opacity:1;color-rendering:auto;image-rendering:auto;shape-rendering:auto;text-rendering:auto;enable-background:accumulate"
       d="m -63.297261,76.202979 -26.17359,26.173601 -1.49655,1.49655 -0.50023,0.50022 v 0.41341 14.59188 l 27.66963,27.66963 0.50023,0.50022 h 0.41444 14.59187 l 27.66963,-27.67014 0.50023,-0.50023 v -0.41341 -14.59187 l -27.66963,-27.669631 -0.50023,-0.50023 h -0.41444 z m 0.41393,0.99994 h 13.17749 l -27.37662,27.377141 0.35347,0.35347 20.22615,20.22563 -6.58771,6.58875 -27.16992,-27.16785 z m 14.38465,0.20722 27.37714,27.376621 v 13.17801 l -27.37714,-27.375071 -8.00365,8.00158 5.2e-4,5.1e-4 -12.577,12.575981 -6.58772,-6.58771 z m 0,14.59343 27.16992,27.167851 -27.37714,27.37714 h -13.17749 l 27.37507,-27.37714 -8.00416,-8.00365 -12.57494,-12.575461 z m -7.29568,7.29567 12.57495,12.575461 -12.5765,12.57753 -12.57545,-12.57598 z m -34.67281,6.487981 27.37662,27.37456 20.57807,-20.57808 6.58978,6.58772 -27.16785,27.16991 -27.37662,-27.37662 z"
       id="rect4504-2"
       inkscape:connector-curvature="0" />
    <flowRoot
       xml:space="preserve"
       id="flowRoot4594"
       style="font-style:normal;font-weight:normal;font-size:40px;line-height:1.25;font-family:sans-serif;letter-spacing:0px;word-spacing:0px;fill:#000000;fill-opacity:1;stroke:none"><flowRegion
         id="flowRegion4596"><rect
           id="rect4598"
           width="264.45795"
           height="145.664"
           x="186.67619"
           y="709.56934" /></flowRegion><flowPara
         id="flowPara4600" /></flowRoot>    <flowRoot
       xml:space="preserve"
       id="flowRoot4606"
       style="font-style:normal;font-weight:normal;font-size:40px;line-height:1.25;font-family:sans-serif;letter-spacing:0px;word-spacing:0px;fill:#000000;fill-opacity:1;stroke:none"
       transform="scale(0.26458333)"><flowRegion
         id="flowRegion4608"><rect
           id="rect4610"
           width="84.852814"
           height="50.91169"
           x="299.81326"
           y="747.75311" /></flowRegion><flowPara
         id="flowPara4612" /></flowRoot>    <path
       inkscape:connector-curvature="0"
       style="opacity:1;fill:none;stroke:#000000;stroke-width:15.875;stroke-linecap:round;stroke-miterlimit:4;stroke-dasharray:none;stroke-dashoffset:0"
       d="m -264.58333,204.39583 a 26.458332,26.458332 0 0 1 26.45833,-26.45833 26.458332,26.458332 0 0 1 26.45833,26.45833"
       id="path4714" />
    <path
       sodipodi:nodetypes="csccc"
       inkscape:connector-curvature="0"
       style="opacity:1;fill:none;stroke:#000000;stroke-width:15.875;stroke-linecap:round;stroke-miterlimit:4;stroke-dasharray:none;stroke-dashoffset:0"
       d="m -291.04166,204.39583 c 0,-29.22507 23.69158,-52.91667 52.91666,-52.91667 15.01179,0 28.56357,6.25098 38.19442,16.29199 m 0,0 c 9.11858,9.50691 14.72224,22.41139 14.72224,36.62468"
       id="path4710" />
    <path
       sodipodi:nodetypes="cccccc"
       inkscape:connector-curvature="0"
       style="opacity:1;fill:none;stroke:#000000;stroke-width:15.875;stroke-linecap:round;stroke-miterlimit:4;stroke-dasharray:none;stroke-dashoffset:0"
       d="m -317.5,204.39583 c 0,-26.08085 12.62275,-49.16483 32.00038,-63.6931 m 0,0 c 6.31693,-4.73609 11.51975,-8.04183 16.19438,-10.34921 m 31.18024,-5.33269 c 43.8376,0 79.375,35.5374 79.375,79.375"
       id="path4706" />
    <path
       sodipodi:nodetypes="cccsssc"
       inkscape:connector-curvature="0"
       style="opacity:1;fill:none;stroke:#000000;stroke-width:15.875;stroke-linecap:round;stroke-miterlimit:4;stroke-dasharray:none;stroke-dashoffset:0"
       d="m -343.95833,204.39583 c 0,-6.38061 0.56465,-12.62934 1.64669,-18.69895 m 6.19884,-21.36332 c 4.18791,-10.23245 9.93198,-19.66304 16.93797,-27.99751 19.41393,-23.09519 48.51773,-37.77355 81.04983,-37.77355 28.06874,0 54.98786,11.15027 74.83546,30.99787 19.8476,19.8476 30.99786,46.76672 30.99786,74.83546"
       id="path4702" />
    <path
       sodipodi:nodetypes="csccccsccc"
       inkscape:connector-curvature="0"
       style="opacity:1;fill:none;stroke:#000000;stroke-width:15.875;stroke-linecap:round;stroke-miterlimit:4;stroke-dasharray:none;stroke-dashoffset:0"
       d="m -370.41666,204.39583 c 0,-35.08594 13.93782,-68.73484 38.74733,-93.54434 5.23033,-5.23034 10.85355,-9.97749 16.80027,-14.21272 m 0,0 c 9.89349,-7.046095 20.6824,-12.675261 32.04734,-16.755202 m 44.69672,-7.779412 c 35.08594,0 68.73484,13.937832 93.54434,38.747334 8.63646,8.63646 15.95548,18.3441 21.82772,28.81064 m 12.36616,30.32265 c 2.99751,11.12586 4.55345,22.68824 4.55345,34.41105"
       id="path4668" />
    <path
       style="opacity:1;fill:none;stroke:#000000;stroke-width:60;stroke-linecap:round;stroke-miterlimit:4;stroke-dasharray:none;stroke-dashoffset:0"
       d="m -1400.0001,772.51966 a 300,300 0 0 1 -18.7561,104.41231"
       id="path4939"
       transform="scale(0.26458333)"
       inkscape:connector-curvature="0" />
    <path
       style="opacity:1;fill:none;stroke:#000000;stroke-width:60;stroke-linecap:round;stroke-miterlimit:4;stroke-dasharray:none;stroke-dashoffset:0"
       d="M -1400.0001,772.51966"
       id="path4937"
       transform="scale(0.26458333)"
       inkscape:connector-curvature="0" />
    <path
       style="opacity:1;fill:none;stroke:#000000;stroke-width:60;stroke-linecap:round;stroke-miterlimit:4;stroke-dasharray:none;stroke-dashoffset:0"
       d="m -1300.0001,772.51966 a 399.99998,399.99998 0 0 1 -75.237,233.51454"
       id="path4935"
       transform="scale(0.26458333)"
       inkscape:connector-curvature="0" />
    <path
       style="opacity:1;fill:none;stroke:#000000;stroke-width:60;stroke-linecap:round;stroke-miterlimit:4;stroke-dasharray:none;stroke-dashoffset:0"
       d="M -1300.0001,772.51966"
       id="path4933"
       transform="scale(0.26458333)"
       inkscape:connector-curvature="0" />
    <path
       style="opacity:1;fill:none;stroke:#000000;stroke-width:60;stroke-linecap:round;stroke-miterlimit:4;stroke-dasharray:none;stroke-dashoffset:0"
       d="M -1200,772.51966 A 500,500 0 0 1 -1319.1044,1096.431"
       id="path4931"
       transform="scale(0.26458333)"
       inkscape:connector-curvature="0" />
    <path
       style="opacity:1;fill:none;stroke:#000000;stroke-width:60;stroke-linecap:round;stroke-miterlimit:4;stroke-dasharray:none;stroke-dashoffset:0"
       d="M -1200,772.51966"
       id="path4929"
       transform="scale(0.26458333)"
       inkscape:connector-curvature="0" />
    <path
       style="opacity:1;fill:none;stroke:#000000;stroke-width:60;stroke-linecap:round;stroke-miterlimit:4;stroke-dasharray:none;stroke-dashoffset:0"
       d="m -1100,772.51966 a 599.99999,599.99999 0 0 1 -150.2546,397.15124"
       id="path4927"
       transform="scale(0.26458333)"
       inkscape:connector-curvature="0" />
    <path
       style="opacity:1;fill:none;stroke:#000000;stroke-width:60;stroke-linecap:round;stroke-miterlimit:4;stroke-dasharray:none;stroke-dashoffset:0"
       d="m -1012.6802,905.1604 c -22.9328,118.8264 -76.45,230.4751 -156.2862,323.4331"
       id="path4923"
       transform="scale(0.26458333)"
       inkscape:connector-curvature="0"
       sodipodi:nodetypes="cc" />
    <path
       style="opacity:1;fill:none;stroke:#000000;stroke-width:60;stroke-linecap:round;stroke-miterlimit:4;stroke-dasharray:none;stroke-dashoffset:0"
       d="m -799.99996,772.51966 c 0,121.2463 -3.24836,189.58934 -50.00007,300.00004 m -45.41049,103.2832 c -21.23088,42.3582 -45.8701,83.165 -73.7813,121.9971"
       id="path4919"
       transform="scale(0.26458333)"
       inkscape:connector-curvature="0"
       sodipodi:nodetypes="cccc" />
    <path
       style="opacity:1;fill:none;stroke:#000000;stroke-width:60;stroke-linecap:round;stroke-miterlimit:4;stroke-dasharray:none;stroke-dashoffset:0"
       d="M -699.9999,772.51966 A 999.99999,999.99999 0 0 1 -850.7714,1300.5452"
       id="path4915"
       transform="scale(0.26458333)"
       inkscape:connector-curvature="0" />
    <path
       style="opacity:1;fill:none;stroke:#000000;stroke-width:60;stroke-linecap:round;stroke-miterlimit:4;stroke-dasharray:none;stroke-dashoffset:0"
       d="m -599.99999,772.51965 a 1100,1100 0 0 1 0,1e-5 1100,1100 0 0 1 -119.53156,498.67984"
       id="path4911"
       transform="scale(0.26458333)"
       inkscape:connector-curvature="0" />
    <path
       style="opacity:1;fill:none;stroke:#000000;stroke-width:60;stroke-linecap:round;stroke-miterlimit:4;stroke-dasharray:none;stroke-dashoffset:0"
       d="m -499.99996,772.51965 a 1200,1200 0 0 1 0,1e-5 1200,1200 0 0 1 -76.14569,420.65604"
       id="path4907"
       transform="scale(0.26458333)"
       inkscape:connector-curvature="0" />
    <path
       style="opacity:1;fill:none;stroke:#000000;stroke-width:60;stroke-linecap:round;stroke-miterlimit:4;stroke-dasharray:none;stroke-dashoffset:0"
       d="m -399.64837,772.51966 a 1300.3516,1300.3516 0 0 1 -19.49467,224.32076"
       id="path4903"
       transform="scale(0.26458333)"
       inkscape:connector-curvature="0" />
    <g
       id="g5249"
       style="fill:url(#linearGradient5265);fill-opacity:1;stroke-width:3.99726582"
       transform="matrix(0.25017102,0,0,0.25017102,214.3933,192.50967)">
      <path
         inkscape:connector-curvature="0"
         id="path4714-9"
         d="m -555.625,170 c -18.90227,1e-5 -34.39648,15.49421 -34.39648,34.39648 a 7.9382937,7.9382937 0 1 0 15.875,0 c 0,-10.32278 8.19869,-18.52148 18.52148,-18.52148 10.32279,0 18.52148,8.1987 18.52148,18.52148 a 7.9382937,7.9382937 0 1 0 15.875,0 C -521.22852,185.49421 -536.72273,170 -555.625,170 Z"
         style="color:#000000;font-style:normal;font-variant:normal;font-weight:normal;font-stretch:normal;font-size:medium;line-height:normal;font-family:sans-serif;font-variant-ligatures:normal;font-variant-position:normal;font-variant-caps:normal;font-variant-numeric:normal;font-variant-alternates:normal;font-feature-settings:normal;text-indent:0;text-align:start;text-decoration:none;text-decoration-line:none;text-decoration-style:solid;text-decoration-color:#000000;letter-spacing:normal;word-spacing:normal;text-transform:none;writing-mode:lr-tb;direction:ltr;text-orientation:mixed;dominant-baseline:auto;baseline-shift:baseline;text-anchor:start;white-space:normal;shape-padding:0;clip-rule:nonzero;display:inline;overflow:visible;visibility:visible;opacity:1;isolation:auto;mix-blend-mode:normal;color-interpolation:sRGB;color-interpolation-filters:linearRGB;solid-color:#000000;solid-opacity:1;vector-effect:none;fill:url(#linearGradient5315);fill-opacity:1;fill-rule:nonzero;stroke:none;stroke-width:63.45659637;stroke-linecap:round;stroke-linejoin:miter;stroke-miterlimit:4;stroke-dasharray:none;stroke-dashoffset:0;stroke-opacity:1;color-rendering:auto;image-rendering:auto;shape-rendering:auto;text-rendering:auto;enable-background:accumulate" />
      <path
         inkscape:connector-curvature="0"
         id="path4710-8"
         d="m -555.625,143.54102 c -33.51481,0 -60.85352,27.34065 -60.85352,60.85546 a 7.9382937,7.9382937 0 1 0 15.875,0 c 0,-24.93533 20.04319,-44.98046 44.97852,-44.98046 12.80833,0 24.27164,5.30543 32.4668,13.8496 7.75924,8.0897 12.51172,19.00384 12.51172,31.13086 a 7.9382937,7.9382937 0 1 0 15.875,0 c 0,-16.00908 -6.24892,-30.64209 -16.39844,-41.50976 a 7.9382937,7.9382937 0 0 0 -0.5332,-0.60938 7.9382937,7.9382937 0 0 0 -0.67188,-0.63476 c -11.0251,-11.15043 -26.36644,-18.10156 -43.25,-18.10156 z"
         style="color:#000000;font-style:normal;font-variant:normal;font-weight:normal;font-stretch:normal;font-size:medium;line-height:normal;font-family:sans-serif;font-variant-ligatures:normal;font-variant-position:normal;font-variant-caps:normal;font-variant-numeric:normal;font-variant-alternates:normal;font-feature-settings:normal;text-indent:0;text-align:start;text-decoration:none;text-decoration-line:none;text-decoration-style:solid;text-decoration-color:#000000;letter-spacing:normal;word-spacing:normal;text-transform:none;writing-mode:lr-tb;direction:ltr;text-orientation:mixed;dominant-baseline:auto;baseline-shift:baseline;text-anchor:start;white-space:normal;shape-padding:0;clip-rule:nonzero;display:inline;overflow:visible;visibility:visible;opacity:1;isolation:auto;mix-blend-mode:normal;color-interpolation:sRGB;color-interpolation-filters:linearRGB;solid-color:#000000;solid-opacity:1;vector-effect:none;fill:url(#linearGradient5317);fill-opacity:1;fill-rule:nonzero;stroke:none;stroke-width:63.45659637;stroke-linecap:round;stroke-linejoin:miter;stroke-miterlimit:4;stroke-dasharray:none;stroke-dashoffset:0;stroke-opacity:1;color-rendering:auto;image-rendering:auto;shape-rendering:auto;text-rendering:auto;enable-background:accumulate" />
      <path
         inkscape:connector-curvature="0"
         id="path4706-5"
         d="m -555.625,117.08398 a 7.9382937,7.9382937 0 1 0 0,15.875 c 39.54786,0 71.4375,31.88965 71.4375,71.4375 a 7.9382937,7.9382937 0 1 0 15.875,0 c 0,-48.12734 -39.18516,-87.3125 -87.3125,-87.3125 z m -31.10156,5.28125 a 7.9382937,7.9382937 0 0 0 -3.5918,0.8711 c -5.12741,2.53086 -10.58892,6.03747 -16.92187,10.75195 a 7.9382937,7.9382937 0 0 0 -0.52149,0.36328 7.9382937,7.9382937 0 0 0 -0.76367,0.64258 c -20.8324,15.99044 -34.41211,41.11908 -34.41211,69.40234 a 7.9382937,7.9382937 0 1 0 15.875,0 c 0,-23.51976 11.35163,-44.24377 28.82422,-57.34375 6.06161,-4.54466 10.87275,-7.57183 14.94531,-9.58203 a 7.9382937,7.9382937 0 0 0 -3.43359,-15.10547 z"
         style="color:#000000;font-style:normal;font-variant:normal;font-weight:normal;font-stretch:normal;font-size:medium;line-height:normal;font-family:sans-serif;font-variant-ligatures:normal;font-variant-position:normal;font-variant-caps:normal;font-variant-numeric:normal;font-variant-alternates:normal;font-feature-settings:normal;text-indent:0;text-align:start;text-decoration:none;text-decoration-line:none;text-decoration-style:solid;text-decoration-color:#000000;letter-spacing:normal;word-spacing:normal;text-transform:none;writing-mode:lr-tb;direction:ltr;text-orientation:mixed;dominant-baseline:auto;baseline-shift:baseline;text-anchor:start;white-space:normal;shape-padding:0;clip-rule:nonzero;display:inline;overflow:visible;visibility:visible;opacity:1;isolation:auto;mix-blend-mode:normal;color-interpolation:sRGB;color-interpolation-filters:linearRGB;solid-color:#000000;solid-opacity:1;vector-effect:none;fill:url(#linearGradient5319);fill-opacity:1;fill-rule:nonzero;stroke:none;stroke-width:63.45659637;stroke-linecap:round;stroke-linejoin:miter;stroke-miterlimit:4;stroke-dasharray:none;stroke-dashoffset:0;stroke-opacity:1;color-rendering:auto;image-rendering:auto;shape-rendering:auto;text-rendering:auto;enable-background:accumulate" />
      <path
         inkscape:connector-curvature="0"
         id="path4702-9"
         d="m -555.625,90.625 c -34.91968,0 -66.26275,15.78537 -87.125,40.60352 -7.52865,8.95623 -13.70492,19.09273 -18.20898,30.09765 a 7.9382937,7.9382937 0 1 0 14.6914,6.01367 c 3.87176,-9.45997 9.18464,-18.18378 15.66797,-25.89648 C -612.634,120.07112 -585.76952,106.5 -555.625,106.5 c 25.96664,0 50.86147,10.31264 69.22266,28.67383 18.36118,18.36118 28.67382,43.25602 28.67382,69.22265 a 7.9382937,7.9382937 0 1 0 15.875,0 c 0,-30.17084 -11.9902,-59.1152 -33.32421,-80.44921 C -496.51175,102.61325 -525.45414,90.625 -555.625,90.625 Z m -104.47461,87.0293 a 7.9382937,7.9382937 0 0 0 -7.52734,6.65039 c -1.16351,6.52657 -1.76953,13.2429 -1.76953,20.09179 a 7.9382937,7.9382937 0 1 0 15.875,0 c 0,-5.91232 0.52286,-11.69399 1.52343,-17.30664 a 7.9382937,7.9382937 0 0 0 -8.10156,-9.43554 z"
         style="color:#000000;font-style:normal;font-variant:normal;font-weight:normal;font-stretch:normal;font-size:medium;line-height:normal;font-family:sans-serif;font-variant-ligatures:normal;font-variant-position:normal;font-variant-caps:normal;font-variant-numeric:normal;font-variant-alternates:normal;font-feature-settings:normal;text-indent:0;text-align:start;text-decoration:none;text-decoration-line:none;text-decoration-style:solid;text-decoration-color:#000000;letter-spacing:normal;word-spacing:normal;text-transform:none;writing-mode:lr-tb;direction:ltr;text-orientation:mixed;dominant-baseline:auto;baseline-shift:baseline;text-anchor:start;white-space:normal;shape-padding:0;clip-rule:nonzero;display:inline;overflow:visible;visibility:visible;opacity:1;isolation:auto;mix-blend-mode:normal;color-interpolation:sRGB;color-interpolation-filters:linearRGB;solid-color:#000000;solid-opacity:1;vector-effect:none;fill:url(#linearGradient5321);fill-opacity:1;fill-rule:nonzero;stroke:none;stroke-width:63.45659637;stroke-linecap:round;stroke-linejoin:miter;stroke-miterlimit:4;stroke-dasharray:none;stroke-dashoffset:0;stroke-opacity:1;color-rendering:auto;image-rendering:auto;shape-rendering:auto;text-rendering:auto;enable-background:accumulate" />
      <path
         inkscape:connector-curvature="0"
         id="path4668-0"
         d="m -555.625,64.166016 a 7.9382937,7.9382937 0 1 0 0,15.875 c 32.98383,0 64.60855,13.100738 87.93164,36.423824 8.11902,8.11903 14.99767,17.24348 20.51758,27.08204 a 7.9382937,7.9382937 0 1 0 13.8457,-7.76758 c -6.22457,-11.09453 -13.98477,-21.38712 -23.13867,-30.54102 -26.29591,-26.295917 -61.9682,-41.072264 -99.15625,-41.072264 z m -44.50391,7.742187 a 7.9382937,7.9382937 0 0 0 -2.875,0.503906 c -11.84014,4.250535 -23.08042,10.106093 -33.41992,17.396485 a 7.9382937,7.9382937 0 0 0 -0.55078,0.365234 7.9382937,7.9382937 0 0 0 -0.66601,0.517578 c -6.05113,4.364604 -11.7979,9.204131 -17.14063,14.546874 -26.29593,26.29592 -41.07227,61.97016 -41.07227,99.1582 a 7.9382937,7.9382937 0 1 0 15.875,0 c 0,-32.98383 13.09878,-64.60855 36.42188,-87.93164 4.91696,-4.91696 10.20322,-9.38033 15.79297,-13.36132 9.29959,-6.62313 19.43979,-11.914784 30.12305,-15.750004 a 7.9382937,7.9382937 0 0 0 -2.48829,-15.445313 z m 172.38477,90.031247 a 7.9382937,7.9382937 0 0 0 -7.80664,10.10938 c 2.81766,10.45827 4.2793,21.32719 4.2793,32.34765 a 7.9382937,7.9382937 0 1 0 15.875,0 c 0,-12.42515 -1.64879,-24.68311 -4.82618,-36.47656 a 7.9382937,7.9382937 0 0 0 -7.52148,-5.98047 z"
         style="color:#000000;font-style:normal;font-variant:normal;font-weight:normal;font-stretch:normal;font-size:medium;line-height:normal;font-family:sans-serif;font-variant-ligatures:normal;font-variant-position:normal;font-variant-caps:normal;font-variant-numeric:normal;font-variant-alternates:normal;font-feature-settings:normal;text-indent:0;text-align:start;text-decoration:none;text-decoration-line:none;text-decoration-style:solid;text-decoration-color:#000000;letter-spacing:normal;word-spacing:normal;text-transform:none;writing-mode:lr-tb;direction:ltr;text-orientation:mixed;dominant-baseline:auto;baseline-shift:baseline;text-anchor:start;white-space:normal;shape-padding:0;clip-rule:nonzero;display:inline;overflow:visible;visibility:visible;opacity:1;isolation:auto;mix-blend-mode:normal;color-interpolation:sRGB;color-interpolation-filters:linearRGB;solid-color:#000000;solid-opacity:1;vector-effect:none;fill:url(#linearGradient5323);fill-opacity:1;fill-rule:nonzero;stroke:none;stroke-width:63.45659637;stroke-linecap:round;stroke-linejoin:miter;stroke-miterlimit:4;stroke-dasharray:none;stroke-dashoffset:0;stroke-opacity:1;color-rendering:auto;image-rendering:auto;shape-rendering:auto;text-rendering:auto;enable-background:accumulate" />
      <path
         inkscape:connector-curvature="0"
         id="path4939-7"
         d="m -688.03711,196.3457 a 7.9382937,7.9382937 0 0 0 -7.81641,8.05078 c 10e-6,8.4873 -1.51287,16.90662 -4.46679,24.86329 a 7.9382937,7.9382937 0 1 0 14.88281,5.52343 c 3.6103,-9.72469 5.459,-20.01348 5.45898,-30.38672 a 7.9382937,7.9382937 0 0 0 -8.05859,-8.05078 z"
         style="color:#000000;font-style:normal;font-variant:normal;font-weight:normal;font-stretch:normal;font-size:medium;line-height:normal;font-family:sans-serif;font-variant-ligatures:normal;font-variant-position:normal;font-variant-caps:normal;font-variant-numeric:normal;font-variant-alternates:normal;font-feature-settings:normal;text-indent:0;text-align:start;text-decoration:none;text-decoration-line:none;text-decoration-style:solid;text-decoration-color:#000000;letter-spacing:normal;word-spacing:normal;text-transform:none;writing-mode:lr-tb;direction:ltr;text-orientation:mixed;dominant-baseline:auto;baseline-shift:baseline;text-anchor:start;white-space:normal;shape-padding:0;clip-rule:nonzero;display:inline;overflow:visible;visibility:visible;opacity:1;isolation:auto;mix-blend-mode:normal;color-interpolation:sRGB;color-interpolation-filters:linearRGB;solid-color:#000000;solid-opacity:1;vector-effect:none;fill:url(#linearGradient5325);fill-opacity:1;fill-rule:nonzero;stroke:none;stroke-width:63.45659637;stroke-linecap:round;stroke-linejoin:miter;stroke-miterlimit:4;stroke-dasharray:none;stroke-dashoffset:0;stroke-opacity:1;color-rendering:auto;image-rendering:auto;shape-rendering:auto;text-rendering:auto;enable-background:accumulate" />
      <path
         id="path4937-9"
         d="M -687.91673,204.39583"
         style="opacity:1;fill:url(#linearGradient5327);fill-opacity:1;stroke:#000000;stroke-width:63.45659637;stroke-linecap:round;stroke-miterlimit:4;stroke-dasharray:none;stroke-dashoffset:0"
         inkscape:connector-curvature="0" />
      <path
         inkscape:connector-curvature="0"
         id="path4935-8"
         d="m -661.57812,196.3457 a 7.9382937,7.9382937 0 0 0 -7.81836,8.05078 c 0,20.50952 -6.43894,40.49856 -18.41211,57.1504 a 7.9382937,7.9382937 0 1 0 12.88867,9.26757 c 13.91355,-19.35043 21.39844,-42.58467 21.39844,-66.41797 a 7.9382937,7.9382937 0 0 0 -8.05664,-8.05078 z"
         style="color:#000000;font-style:normal;font-variant:normal;font-weight:normal;font-stretch:normal;font-size:medium;line-height:normal;font-family:sans-serif;font-variant-ligatures:normal;font-variant-position:normal;font-variant-caps:normal;font-variant-numeric:normal;font-variant-alternates:normal;font-feature-settings:normal;text-indent:0;text-align:start;text-decoration:none;text-decoration-line:none;text-decoration-style:solid;text-decoration-color:#000000;letter-spacing:normal;word-spacing:normal;text-transform:none;writing-mode:lr-tb;direction:ltr;text-orientation:mixed;dominant-baseline:auto;baseline-shift:baseline;text-anchor:start;white-space:normal;shape-padding:0;clip-rule:nonzero;display:inline;overflow:visible;visibility:visible;opacity:1;isolation:auto;mix-blend-mode:normal;color-interpolation:sRGB;color-interpolation-filters:linearRGB;solid-color:#000000;solid-opacity:1;vector-effect:none;fill:url(#linearGradient5329);fill-opacity:1;fill-rule:nonzero;stroke:none;stroke-width:63.45659637;stroke-linecap:round;stroke-linejoin:miter;stroke-miterlimit:4;stroke-dasharray:none;stroke-dashoffset:0;stroke-opacity:1;color-rendering:auto;image-rendering:auto;shape-rendering:auto;text-rendering:auto;enable-background:accumulate" />
      <path
         id="path4933-0"
         d="M -661.4584,204.39583"
         style="opacity:1;fill:url(#linearGradient5331);fill-opacity:1;stroke:#000000;stroke-width:63.45659637;stroke-linecap:round;stroke-miterlimit:4;stroke-dasharray:none;stroke-dashoffset:0"
         inkscape:connector-curvature="0" />
      <path
         inkscape:connector-curvature="0"
         id="path4931-3"
         d="m -635.11914,196.3457 a 7.9382937,7.9382937 0 0 0 -7.81836,8.05078 c 0,29.51956 -10.49961,58.07086 -29.62305,80.5586 a 7.9382937,7.9382937 0 1 0 12.09375,10.28515 c 21.56228,-25.35563 33.4043,-57.55951 33.4043,-90.84375 a 7.9382937,7.9382937 0 0 0 -8.05664,-8.05078 z"
         style="color:#000000;font-style:normal;font-variant:normal;font-weight:normal;font-stretch:normal;font-size:medium;line-height:normal;font-family:sans-serif;font-variant-ligatures:normal;font-variant-position:normal;font-variant-caps:normal;font-variant-numeric:normal;font-variant-alternates:normal;font-feature-settings:normal;text-indent:0;text-align:start;text-decoration:none;text-decoration-line:none;text-decoration-style:solid;text-decoration-color:#000000;letter-spacing:normal;word-spacing:normal;text-transform:none;writing-mode:lr-tb;direction:ltr;text-orientation:mixed;dominant-baseline:auto;baseline-shift:baseline;text-anchor:start;white-space:normal;shape-padding:0;clip-rule:nonzero;display:inline;overflow:visible;visibility:visible;opacity:1;isolation:auto;mix-blend-mode:normal;color-interpolation:sRGB;color-interpolation-filters:linearRGB;solid-color:#000000;solid-opacity:1;vector-effect:none;fill:url(#linearGradient5333);fill-opacity:1;fill-rule:nonzero;stroke:none;stroke-width:63.45659637;stroke-linecap:round;stroke-linejoin:miter;stroke-miterlimit:4;stroke-dasharray:none;stroke-dashoffset:0;stroke-opacity:1;color-rendering:auto;image-rendering:auto;shape-rendering:auto;text-rendering:auto;enable-background:accumulate" />
      <path
         id="path4929-1"
         d="M -635.00004,204.39583"
         style="opacity:1;fill:url(#linearGradient5335);fill-opacity:1;stroke:#000000;stroke-width:63.45659637;stroke-linecap:round;stroke-miterlimit:4;stroke-dasharray:none;stroke-dashoffset:0"
         inkscape:connector-curvature="0" />
      <path
         inkscape:connector-curvature="0"
         id="path4927-7"
         d="m -608.66211,196.3457 a 7.9382937,7.9382937 0 0 0 -7.81641,8.05078 c 10e-6,36.76841 -13.42988,72.26352 -37.76757,99.82422 a 7.9382937,7.9382937 0 1 0 11.89843,10.50782 c 26.89674,-30.45864 41.74415,-69.69753 41.74414,-110.33204 a 7.9382937,7.9382937 0 0 0 -8.05859,-8.05078 z"
         style="color:#000000;font-style:normal;font-variant:normal;font-weight:normal;font-stretch:normal;font-size:medium;line-height:normal;font-family:sans-serif;font-variant-ligatures:normal;font-variant-position:normal;font-variant-caps:normal;font-variant-numeric:normal;font-variant-alternates:normal;font-feature-settings:normal;text-indent:0;text-align:start;text-decoration:none;text-decoration-line:none;text-decoration-style:solid;text-decoration-color:#000000;letter-spacing:normal;word-spacing:normal;text-transform:none;writing-mode:lr-tb;direction:ltr;text-orientation:mixed;dominant-baseline:auto;baseline-shift:baseline;text-anchor:start;white-space:normal;shape-padding:0;clip-rule:nonzero;display:inline;overflow:visible;visibility:visible;opacity:1;isolation:auto;mix-blend-mode:normal;color-interpolation:sRGB;color-interpolation-filters:linearRGB;solid-color:#000000;solid-opacity:1;vector-effect:none;fill:url(#linearGradient5337);fill-opacity:1;fill-rule:nonzero;stroke:none;stroke-width:63.45659637;stroke-linecap:round;stroke-linejoin:miter;stroke-miterlimit:4;stroke-dasharray:none;stroke-dashoffset:0;stroke-opacity:1;color-rendering:auto;image-rendering:auto;shape-rendering:auto;text-rendering:auto;enable-background:accumulate" />
      <path
         inkscape:connector-curvature="0"
         id="path4923-0"
         d="m -585.61133,231.44336 a 7.9382937,7.9382937 0 0 0 -7.62109,6.54297 c -5.80753,30.09178 -19.3592,58.36611 -39.57813,81.9082 a 7.9382937,7.9382937 0 1 0 12.04297,10.3418 c 22.02774,-25.64819 36.79532,-56.45499 43.12305,-89.24219 a 7.9382937,7.9382937 0 0 0 -7.9668,-9.55078 z"
         style="color:#000000;font-style:normal;font-variant:normal;font-weight:normal;font-stretch:normal;font-size:medium;line-height:normal;font-family:sans-serif;font-variant-ligatures:normal;font-variant-position:normal;font-variant-caps:normal;font-variant-numeric:normal;font-variant-alternates:normal;font-feature-settings:normal;text-indent:0;text-align:start;text-decoration:none;text-decoration-line:none;text-decoration-style:solid;text-decoration-color:#000000;letter-spacing:normal;word-spacing:normal;text-transform:none;writing-mode:lr-tb;direction:ltr;text-orientation:mixed;dominant-baseline:auto;baseline-shift:baseline;text-anchor:start;white-space:normal;shape-padding:0;clip-rule:nonzero;display:inline;overflow:visible;visibility:visible;opacity:1;isolation:auto;mix-blend-mode:normal;color-interpolation:sRGB;color-interpolation-filters:linearRGB;solid-color:#000000;solid-opacity:1;vector-effect:none;fill:url(#linearGradient5339);fill-opacity:1;fill-rule:nonzero;stroke:none;stroke-width:63.45659637;stroke-linecap:round;stroke-linejoin:miter;stroke-miterlimit:4;stroke-dasharray:none;stroke-dashoffset:0;stroke-opacity:1;color-rendering:auto;image-rendering:auto;shape-rendering:auto;text-rendering:auto;enable-background:accumulate" />
      <path
         inkscape:connector-curvature="0"
         id="path4919-7"
         d="m -529.28711,196.3457 a 7.9382937,7.9382937 0 0 0 -7.81641,8.05078 c 0,31.93798 -0.63894,48.0279 -12.60156,76.2793 a 7.9382937,7.9382937 0 1 0 14.61914,6.18945 c 12.77683,-30.17426 13.85742,-50.24722 13.85742,-82.46875 a 7.9382937,7.9382937 0 0 0 -8.05859,-8.05078 z m -25.47266,106.72266 a 7.9382937,7.9382937 0 0 0 -6.74609,4.47266 c -5.43007,10.83364 -11.73227,21.27107 -18.87109,31.20312 a 7.9382937,7.9382937 0 1 0 12.89062,9.26563 c 7.63086,-10.61661 14.36726,-21.77457 20.17188,-33.35547 a 7.9382937,7.9382937 0 0 0 -7.44532,-11.58594 z"
         style="color:#000000;font-style:normal;font-variant:normal;font-weight:normal;font-stretch:normal;font-size:medium;line-height:normal;font-family:sans-serif;font-variant-ligatures:normal;font-variant-position:normal;font-variant-caps:normal;font-variant-numeric:normal;font-variant-alternates:normal;font-feature-settings:normal;text-indent:0;text-align:start;text-decoration:none;text-decoration-line:none;text-decoration-style:solid;text-decoration-color:#000000;letter-spacing:normal;word-spacing:normal;text-transform:none;writing-mode:lr-tb;direction:ltr;text-orientation:mixed;dominant-baseline:auto;baseline-shift:baseline;text-anchor:start;white-space:normal;shape-padding:0;clip-rule:nonzero;display:inline;overflow:visible;visibility:visible;opacity:1;isolation:auto;mix-blend-mode:normal;color-interpolation:sRGB;color-interpolation-filters:linearRGB;solid-color:#000000;solid-opacity:1;vector-effect:none;fill:url(#linearGradient5341);fill-opacity:1;fill-rule:nonzero;stroke:none;stroke-width:63.45659637;stroke-linecap:round;stroke-linejoin:miter;stroke-miterlimit:4;stroke-dasharray:none;stroke-dashoffset:0;stroke-opacity:1;color-rendering:auto;image-rendering:auto;shape-rendering:auto;text-rendering:auto;enable-background:accumulate" />
      <path
         inkscape:connector-curvature="0"
         id="path4915-2"
         d="m -502.82812,196.3457 a 7.9382937,7.9382937 0 0 0 -7.81836,8.05078 c 0,47.89819 -13.4019,94.83912 -38.69336,135.51563 a 7.9382937,7.9382937 0 1 0 13.48046,8.38086 c 26.8553,-43.19162 41.0879,-93.03665 41.0879,-143.89649 a 7.9382937,7.9382937 0 0 0 -8.05664,-8.05078 z"
         style="color:#000000;font-style:normal;font-variant:normal;font-weight:normal;font-stretch:normal;font-size:medium;line-height:normal;font-family:sans-serif;font-variant-ligatures:normal;font-variant-position:normal;font-variant-caps:normal;font-variant-numeric:normal;font-variant-alternates:normal;font-feature-settings:normal;text-indent:0;text-align:start;text-decoration:none;text-decoration-line:none;text-decoration-style:solid;text-decoration-color:#000000;letter-spacing:normal;word-spacing:normal;text-transform:none;writing-mode:lr-tb;direction:ltr;text-orientation:mixed;dominant-baseline:auto;baseline-shift:baseline;text-anchor:start;white-space:normal;shape-padding:0;clip-rule:nonzero;display:inline;overflow:visible;visibility:visible;opacity:1;isolation:auto;mix-blend-mode:normal;color-interpolation:sRGB;color-interpolation-filters:linearRGB;solid-color:#000000;solid-opacity:1;vector-effect:none;fill:url(#linearGradient5343);fill-opacity:1;fill-rule:nonzero;stroke:none;stroke-width:63.45659637;stroke-linecap:round;stroke-linejoin:miter;stroke-miterlimit:4;stroke-dasharray:none;stroke-dashoffset:0;stroke-opacity:1;color-rendering:auto;image-rendering:auto;shape-rendering:auto;text-rendering:auto;enable-background:accumulate" />
      <path
         inkscape:connector-curvature="0"
         id="path4911-7"
         d="m -476.36914,196.3457 a 7.9382937,7.9382937 0 0 0 -7.81836,8.05078 c 0,44.60775 -10.54096,88.58331 -30.76367,128.34375 a 7.9382937,7.9382937 0 1 0 14.15039,7.19727 c 21.35648,-41.98957 32.48828,-88.43239 32.48828,-135.54102 a 7.9382937,7.9382937 0 0 0 -8.05664,-8.05078 z"
         style="color:#000000;font-style:normal;font-variant:normal;font-weight:normal;font-stretch:normal;font-size:medium;line-height:normal;font-family:sans-serif;font-variant-ligatures:normal;font-variant-position:normal;font-variant-caps:normal;font-variant-numeric:normal;font-variant-alternates:normal;font-feature-settings:normal;text-indent:0;text-align:start;text-decoration:none;text-decoration-line:none;text-decoration-style:solid;text-decoration-color:#000000;letter-spacing:normal;word-spacing:normal;text-transform:none;writing-mode:lr-tb;direction:ltr;text-orientation:mixed;dominant-baseline:auto;baseline-shift:baseline;text-anchor:start;white-space:normal;shape-padding:0;clip-rule:nonzero;display:inline;overflow:visible;visibility:visible;opacity:1;isolation:auto;mix-blend-mode:normal;color-interpolation:sRGB;color-interpolation-filters:linearRGB;solid-color:#000000;solid-opacity:1;vector-effect:none;fill:url(#linearGradient5345);fill-opacity:1;fill-rule:nonzero;stroke:none;stroke-width:63.45659637;stroke-linecap:round;stroke-linejoin:miter;stroke-miterlimit:4;stroke-dasharray:none;stroke-dashoffset:0;stroke-opacity:1;color-rendering:auto;image-rendering:auto;shape-rendering:auto;text-rendering:auto;enable-background:accumulate" />
      <path
         inkscape:connector-curvature="0"
         id="path4907-0"
         d="m -449.91211,196.3457 a 7.9382937,7.9382937 0 0 0 -7.81641,8.05078 c 10e-6,37.05624 -6.65459,73.81078 -19.64453,108.51563 a 7.9382937,7.9382937 0 1 0 14.86914,5.56445 c 13.65605,-36.48446 20.6504,-75.12364 20.65039,-114.08008 a 7.9382937,7.9382937 0 0 0 -8.05859,-8.05078 z"
         style="color:#000000;font-style:normal;font-variant:normal;font-weight:normal;font-stretch:normal;font-size:medium;line-height:normal;font-family:sans-serif;font-variant-ligatures:normal;font-variant-position:normal;font-variant-caps:normal;font-variant-numeric:normal;font-variant-alternates:normal;font-feature-settings:normal;text-indent:0;text-align:start;text-decoration:none;text-decoration-line:none;text-decoration-style:solid;text-decoration-color:#000000;letter-spacing:normal;word-spacing:normal;text-transform:none;writing-mode:lr-tb;direction:ltr;text-orientation:mixed;dominant-baseline:auto;baseline-shift:baseline;text-anchor:start;white-space:normal;shape-padding:0;clip-rule:nonzero;display:inline;overflow:visible;visibility:visible;opacity:1;isolation:auto;mix-blend-mode:normal;color-interpolation:sRGB;color-interpolation-filters:linearRGB;solid-color:#000000;solid-opacity:1;vector-effect:none;fill:url(#linearGradient5347);fill-opacity:1;fill-rule:nonzero;stroke:none;stroke-width:63.45659637;stroke-linecap:round;stroke-linejoin:miter;stroke-miterlimit:4;stroke-dasharray:none;stroke-dashoffset:0;stroke-opacity:1;color-rendering:auto;image-rendering:auto;shape-rendering:auto;text-rendering:auto;enable-background:accumulate" />
      <path
         inkscape:connector-curvature="0"
         id="path4903-0"
         d="m -423.35938,196.3457 a 7.9382937,7.9382937 0 0 0 -7.81835,8.05078 c -10e-6,19.43677 -1.68607,38.83706 -5.03907,57.98243 a 7.9382937,7.9382937 0 1 0 15.63672,2.73828 c 3.51136,-20.04962 5.27734,-40.36593 5.27735,-60.72071 a 7.9382937,7.9382937 0 0 0 -8.05665,-8.05078 z"
         style="color:#000000;font-style:normal;font-variant:normal;font-weight:normal;font-stretch:normal;font-size:medium;line-height:normal;font-family:sans-serif;font-variant-ligatures:normal;font-variant-position:normal;font-variant-caps:normal;font-variant-numeric:normal;font-variant-alternates:normal;font-feature-settings:normal;text-indent:0;text-align:start;text-decoration:none;text-decoration-line:none;text-decoration-style:solid;text-decoration-color:#000000;letter-spacing:normal;word-spacing:normal;text-transform:none;writing-mode:lr-tb;direction:ltr;text-orientation:mixed;dominant-baseline:auto;baseline-shift:baseline;text-anchor:start;white-space:normal;shape-padding:0;clip-rule:nonzero;display:inline;overflow:visible;visibility:visible;opacity:1;isolation:auto;mix-blend-mode:normal;color-interpolation:sRGB;color-interpolation-filters:linearRGB;solid-color:#000000;solid-opacity:1;vector-effect:none;fill:url(#linearGradient5349);fill-opacity:1;fill-rule:nonzero;stroke:none;stroke-width:63.45659637;stroke-linecap:round;stroke-linejoin:miter;stroke-miterlimit:4;stroke-dasharray:none;stroke-dashoffset:0;stroke-opacity:1;color-rendering:auto;image-rendering:auto;shape-rendering:auto;text-rendering:auto;enable-background:accumulate" />
    </g>
  </g>
</svg>
